<mxfile host="Electron" modified="2023-09-29T17:50:46.121Z" agent="Mozilla/5.0 (Windows NT 10.0; Win64; x64) AppleWebKit/537.36 (KHTML, like Gecko) draw.io/22.0.0 Chrome/114.0.5735.289 Electron/25.8.3 Safari/537.36" etag="IWKu09V6Ravyf_bvo-8n" version="22.0.0" type="device">
  <diagram name="Страница — 1" id="aAJz8PeIyYf9gtP4vZeT">
    <mxGraphModel dx="2120" dy="1498" grid="1" gridSize="10" guides="1" tooltips="1" connect="1" arrows="1" fold="1" page="1" pageScale="1" pageWidth="827" pageHeight="1169" math="0" shadow="0">
      <root>
        <mxCell id="0" />
        <mxCell id="1" parent="0" />
        <mxCell id="xnzVwGYOZmCi8FnU8yy7-1" value="Задача: Написать программу, которая из имеющегося массива&#xa;строк формирует новый массив из строк, длина которых меньше,&#xa;либо равна 3 символам. Первоначальный массив можно ввести&#xa;с клавиатуры, либо задать на старте выполнения алгоритма.&#xa;При решении не рекомендуется пользоваться коллекциями,&#xa;лучше обойтись исключительно массивами.&#xa;&#xa;Примеры:&#xa;[“Hello”, “2”, “world”, “:-)”] —&gt; [“2”, “:-)”]&#xa;[“1234”, “1567”, “-2”, “computer science”] —&gt; [“-2”]&#xa;[“Russia”, “Denmark”, “Kazan”] —&gt; []" style="text;whiteSpace=wrap;" parent="1" vertex="1">
          <mxGeometry x="10" y="10" width="370" height="170" as="geometry" />
        </mxCell>
        <mxCell id="Z_jAE4F7uaUWW7qI_gUQ-4" style="edgeStyle=orthogonalEdgeStyle;rounded=0;orthogonalLoop=1;jettySize=auto;html=1;exitX=0.5;exitY=1;exitDx=0;exitDy=0;exitPerimeter=0;entryX=0.5;entryY=0;entryDx=0;entryDy=0;entryPerimeter=0;" parent="1" source="Z_jAE4F7uaUWW7qI_gUQ-1" target="qpcqUfOHio-ymFACplYv-1" edge="1">
          <mxGeometry relative="1" as="geometry">
            <mxPoint x="120" y="285" as="targetPoint" />
          </mxGeometry>
        </mxCell>
        <mxCell id="Z_jAE4F7uaUWW7qI_gUQ-1" value="Начало" style="strokeWidth=2;html=1;shape=mxgraph.flowchart.start_1;whiteSpace=wrap;" parent="1" vertex="1">
          <mxGeometry x="85" y="220" width="70" height="40" as="geometry" />
        </mxCell>
        <mxCell id="qpcqUfOHio-ymFACplYv-1" value="array1&lt;br&gt;array2&lt;br&gt;array3" style="strokeWidth=2;html=1;shape=mxgraph.flowchart.stored_data;whiteSpace=wrap;" parent="1" vertex="1">
          <mxGeometry x="85" y="290" width="70" height="50" as="geometry" />
        </mxCell>
        <mxCell id="qpcqUfOHio-ymFACplYv-3" value="Пояснение" style="strokeWidth=2;html=1;shape=mxgraph.flowchart.display;whiteSpace=wrap;" parent="1" vertex="1">
          <mxGeometry x="75" y="370" width="90" height="50" as="geometry" />
        </mxCell>
        <mxCell id="qpcqUfOHio-ymFACplYv-4" style="edgeStyle=orthogonalEdgeStyle;rounded=0;orthogonalLoop=1;jettySize=auto;html=1;exitX=0.5;exitY=1;exitDx=0;exitDy=0;exitPerimeter=0;entryX=0.5;entryY=0;entryDx=0;entryDy=0;entryPerimeter=0;" parent="1" source="qpcqUfOHio-ymFACplYv-1" target="qpcqUfOHio-ymFACplYv-3" edge="1">
          <mxGeometry relative="1" as="geometry" />
        </mxCell>
        <mxCell id="qpcqUfOHio-ymFACplYv-5" value="" style="strokeWidth=2;html=1;shape=mxgraph.flowchart.annotation_2;align=left;labelPosition=right;pointerEvents=1;dashed=1;" parent="1" vertex="1">
          <mxGeometry x="165" y="373.75" width="85" height="42.5" as="geometry" />
        </mxCell>
        <mxCell id="qpcqUfOHio-ymFACplYv-8" value="Описание действия программы" style="text;html=1;strokeColor=none;fillColor=none;align=left;verticalAlign=middle;whiteSpace=wrap;rounded=0;" parent="1" vertex="1">
          <mxGeometry x="210" y="380" width="120" height="30" as="geometry" />
        </mxCell>
        <mxCell id="z7aqqLMmPEnwP_UpqEK7-16" style="edgeStyle=orthogonalEdgeStyle;rounded=0;orthogonalLoop=1;jettySize=auto;html=1;entryX=0.5;entryY=0;entryDx=0;entryDy=0;" edge="1" parent="1" source="qpcqUfOHio-ymFACplYv-9" target="qpcqUfOHio-ymFACplYv-18">
          <mxGeometry relative="1" as="geometry" />
        </mxCell>
        <mxCell id="qpcqUfOHio-ymFACplYv-9" value="&lt;p style=&quot;line-height: 120%;&quot;&gt;&lt;b&gt;ППР_1&lt;/b&gt;&lt;/p&gt;&lt;p style=&quot;line-height: 120%;&quot;&gt;Обработка&lt;br&gt;array1&lt;/p&gt;" style="shape=process;whiteSpace=wrap;backgroundOutline=1;strokeWidth=2;html=1;" parent="1" vertex="1">
          <mxGeometry x="60" y="450" width="120" height="70" as="geometry" />
        </mxCell>
        <mxCell id="qpcqUfOHio-ymFACplYv-16" value="" style="strokeWidth=2;html=1;shape=mxgraph.flowchart.annotation_2;align=left;labelPosition=right;pointerEvents=1;dashed=1;" parent="1" vertex="1">
          <mxGeometry x="150" y="293.75" width="85" height="42.5" as="geometry" />
        </mxCell>
        <mxCell id="qpcqUfOHio-ymFACplYv-17" value="Массивы, заданные в условии задачи" style="text;html=1;strokeColor=none;fillColor=none;align=left;verticalAlign=middle;whiteSpace=wrap;rounded=0;" parent="1" vertex="1">
          <mxGeometry x="200" y="300" width="120" height="30" as="geometry" />
        </mxCell>
        <mxCell id="z7aqqLMmPEnwP_UpqEK7-17" style="edgeStyle=orthogonalEdgeStyle;rounded=0;orthogonalLoop=1;jettySize=auto;html=1;exitX=0.5;exitY=1;exitDx=0;exitDy=0;entryX=0.5;entryY=0;entryDx=0;entryDy=0;" edge="1" parent="1" source="qpcqUfOHio-ymFACplYv-18" target="qpcqUfOHio-ymFACplYv-22">
          <mxGeometry relative="1" as="geometry" />
        </mxCell>
        <mxCell id="qpcqUfOHio-ymFACplYv-18" value="&lt;p style=&quot;line-height: 120%;&quot;&gt;&lt;b&gt;ППР_1&lt;/b&gt;&lt;/p&gt;&lt;p style=&quot;line-height: 120%;&quot;&gt;Обработка&lt;br&gt;array2&lt;/p&gt;" style="shape=process;whiteSpace=wrap;backgroundOutline=1;strokeWidth=2;html=1;" parent="1" vertex="1">
          <mxGeometry x="60" y="545" width="120" height="70" as="geometry" />
        </mxCell>
        <mxCell id="_OoWVuKjzteK8_PaXhf7-10" style="edgeStyle=orthogonalEdgeStyle;rounded=0;orthogonalLoop=1;jettySize=auto;html=1;exitX=0.5;exitY=1;exitDx=0;exitDy=0;" parent="1" source="qpcqUfOHio-ymFACplYv-22" edge="1">
          <mxGeometry relative="1" as="geometry">
            <mxPoint x="250" y="730" as="targetPoint" />
            <Array as="points">
              <mxPoint x="120" y="730" />
              <mxPoint x="230" y="730" />
            </Array>
          </mxGeometry>
        </mxCell>
        <mxCell id="qpcqUfOHio-ymFACplYv-22" value="&lt;p style=&quot;line-height: 120%;&quot;&gt;&lt;b&gt;ППР_1&lt;/b&gt;&lt;/p&gt;&lt;p style=&quot;line-height: 120%;&quot;&gt;Обработка&lt;br&gt;array3&lt;/p&gt;" style="shape=process;whiteSpace=wrap;backgroundOutline=1;strokeWidth=2;html=1;" parent="1" vertex="1">
          <mxGeometry x="60" y="639" width="120" height="70" as="geometry" />
        </mxCell>
        <mxCell id="y_DUA6QKFecYIxgC0j7_-4" style="edgeStyle=orthogonalEdgeStyle;rounded=0;orthogonalLoop=1;jettySize=auto;html=1;entryX=0.5;entryY=0;entryDx=0;entryDy=0;entryPerimeter=0;" parent="1" target="qpcqUfOHio-ymFACplYv-26" edge="1">
          <mxGeometry relative="1" as="geometry">
            <mxPoint x="449.8571428571429" y="450" as="targetPoint" />
            <mxPoint x="450" y="450" as="sourcePoint" />
            <Array as="points">
              <mxPoint x="450" y="450" />
              <mxPoint x="450" y="450" />
            </Array>
          </mxGeometry>
        </mxCell>
        <mxCell id="qpcqUfOHio-ymFACplYv-26" value="Приглашение к вводу" style="strokeWidth=2;html=1;shape=mxgraph.flowchart.display;whiteSpace=wrap;" parent="1" vertex="1">
          <mxGeometry x="390" y="480" width="120" height="65" as="geometry" />
        </mxCell>
        <mxCell id="qpcqUfOHio-ymFACplYv-40" style="edgeStyle=orthogonalEdgeStyle;rounded=0;orthogonalLoop=1;jettySize=auto;html=1;exitX=0.5;exitY=1;exitDx=0;exitDy=0;entryX=0.5;entryY=0;entryDx=0;entryDy=0;" parent="1" source="qpcqUfOHio-ymFACplYv-28" target="qpcqUfOHio-ymFACplYv-39" edge="1">
          <mxGeometry relative="1" as="geometry" />
        </mxCell>
        <mxCell id="qpcqUfOHio-ymFACplYv-28" value="Ввод&lt;br&gt;строки" style="html=1;strokeWidth=2;shape=manualInput;whiteSpace=wrap;rounded=1;size=26;arcSize=11;verticalAlign=bottom;" parent="1" vertex="1">
          <mxGeometry x="400" y="570" width="100" height="55" as="geometry" />
        </mxCell>
        <mxCell id="qpcqUfOHio-ymFACplYv-30" style="edgeStyle=orthogonalEdgeStyle;rounded=0;orthogonalLoop=1;jettySize=auto;html=1;exitX=0.5;exitY=1;exitDx=0;exitDy=0;exitPerimeter=0;entryX=0.497;entryY=0.236;entryDx=0;entryDy=0;entryPerimeter=0;" parent="1" source="qpcqUfOHio-ymFACplYv-26" target="qpcqUfOHio-ymFACplYv-28" edge="1">
          <mxGeometry relative="1" as="geometry" />
        </mxCell>
        <mxCell id="qpcqUfOHio-ymFACplYv-34" style="edgeStyle=orthogonalEdgeStyle;rounded=0;orthogonalLoop=1;jettySize=auto;html=1;exitX=0.5;exitY=1;exitDx=0;exitDy=0;entryX=0.5;entryY=0;entryDx=0;entryDy=0;" parent="1" source="qpcqUfOHio-ymFACplYv-31" target="qpcqUfOHio-ymFACplYv-33" edge="1">
          <mxGeometry relative="1" as="geometry" />
        </mxCell>
        <mxCell id="qpcqUfOHio-ymFACplYv-31" value="Преобразование строки в массив строк" style="rounded=1;whiteSpace=wrap;html=1;absoluteArcSize=1;arcSize=0;strokeWidth=2;" parent="1" vertex="1">
          <mxGeometry x="395" y="780" width="110" height="60" as="geometry" />
        </mxCell>
        <mxCell id="qpcqUfOHio-ymFACplYv-33" value="&lt;p style=&quot;line-height: 120%;&quot;&gt;&lt;b&gt;ППР_2&lt;/b&gt;&lt;/p&gt;&lt;p style=&quot;line-height: 120%;&quot;&gt;Обработка&lt;br&gt;массива&lt;/p&gt;" style="shape=process;whiteSpace=wrap;backgroundOutline=1;strokeWidth=2;html=1;" parent="1" vertex="1">
          <mxGeometry x="390" y="870" width="120" height="70" as="geometry" />
        </mxCell>
        <mxCell id="qpcqUfOHio-ymFACplYv-37" value="Запрос на продолжение" style="strokeWidth=2;html=1;shape=mxgraph.flowchart.display;whiteSpace=wrap;" parent="1" vertex="1">
          <mxGeometry x="396.25" y="990" width="107.5" height="60" as="geometry" />
        </mxCell>
        <mxCell id="qpcqUfOHio-ymFACplYv-38" style="edgeStyle=orthogonalEdgeStyle;rounded=0;orthogonalLoop=1;jettySize=auto;html=1;exitX=0.5;exitY=1;exitDx=0;exitDy=0;entryX=0.5;entryY=0;entryDx=0;entryDy=0;entryPerimeter=0;" parent="1" source="qpcqUfOHio-ymFACplYv-33" target="qpcqUfOHio-ymFACplYv-37" edge="1">
          <mxGeometry relative="1" as="geometry">
            <mxPoint x="450" y="1035" as="sourcePoint" />
          </mxGeometry>
        </mxCell>
        <mxCell id="qpcqUfOHio-ymFACplYv-41" value="Нет" style="edgeStyle=orthogonalEdgeStyle;rounded=0;orthogonalLoop=1;jettySize=auto;html=1;exitX=0.5;exitY=1;exitDx=0;exitDy=0;entryX=0.5;entryY=0;entryDx=0;entryDy=0;" parent="1" source="qpcqUfOHio-ymFACplYv-39" target="qpcqUfOHio-ymFACplYv-31" edge="1">
          <mxGeometry relative="1" as="geometry" />
        </mxCell>
        <mxCell id="qpcqUfOHio-ymFACplYv-39" value="Длина строки = 0" style="rhombus;whiteSpace=wrap;html=1;strokeWidth=2;" parent="1" vertex="1">
          <mxGeometry x="380" y="655" width="140" height="80" as="geometry" />
        </mxCell>
        <mxCell id="_OoWVuKjzteK8_PaXhf7-11" style="edgeStyle=orthogonalEdgeStyle;rounded=0;orthogonalLoop=1;jettySize=auto;html=1;exitX=0.5;exitY=1;exitDx=0;exitDy=0;exitPerimeter=0;" parent="1" source="qpcqUfOHio-ymFACplYv-42" edge="1">
          <mxGeometry relative="1" as="geometry">
            <mxPoint x="450" y="450" as="targetPoint" />
            <Array as="points">
              <mxPoint x="320" y="810" />
              <mxPoint x="250" y="810" />
              <mxPoint x="250" y="450" />
            </Array>
          </mxGeometry>
        </mxCell>
        <mxCell id="qpcqUfOHio-ymFACplYv-42" value="Оповещение" style="strokeWidth=2;html=1;shape=mxgraph.flowchart.display;whiteSpace=wrap;" parent="1" vertex="1">
          <mxGeometry x="270" y="730" width="100" height="60" as="geometry" />
        </mxCell>
        <mxCell id="qpcqUfOHio-ymFACplYv-44" value="Да" style="edgeStyle=orthogonalEdgeStyle;rounded=0;orthogonalLoop=1;jettySize=auto;html=1;exitX=0;exitY=0.5;exitDx=0;exitDy=0;entryX=0.5;entryY=0;entryDx=0;entryDy=0;entryPerimeter=0;" parent="1" source="qpcqUfOHio-ymFACplYv-39" target="qpcqUfOHio-ymFACplYv-42" edge="1">
          <mxGeometry x="-0.3684" relative="1" as="geometry">
            <mxPoint as="offset" />
          </mxGeometry>
        </mxCell>
        <mxCell id="qpcqUfOHio-ymFACplYv-48" value="Да" style="edgeStyle=orthogonalEdgeStyle;rounded=0;orthogonalLoop=1;jettySize=auto;html=1;exitX=0;exitY=0.5;exitDx=0;exitDy=0;" parent="1" source="qpcqUfOHio-ymFACplYv-46" edge="1">
          <mxGeometry x="-0.8481" relative="1" as="geometry">
            <mxPoint x="450" y="450.0000000000002" as="targetPoint" />
            <Array as="points">
              <mxPoint x="540" y="695" />
              <mxPoint x="540" y="450" />
            </Array>
            <mxPoint as="offset" />
          </mxGeometry>
        </mxCell>
        <mxCell id="qpcqUfOHio-ymFACplYv-50" value="Нет" style="edgeStyle=orthogonalEdgeStyle;rounded=0;orthogonalLoop=1;jettySize=auto;html=1;exitX=0.5;exitY=1;exitDx=0;exitDy=0;entryX=0.5;entryY=0;entryDx=0;entryDy=0;" parent="1" source="qpcqUfOHio-ymFACplYv-46" target="qpcqUfOHio-ymFACplYv-49" edge="1">
          <mxGeometry relative="1" as="geometry" />
        </mxCell>
        <mxCell id="qpcqUfOHio-ymFACplYv-46" value="Клавиша «Y»" style="rhombus;whiteSpace=wrap;html=1;strokeWidth=2;" parent="1" vertex="1">
          <mxGeometry x="600" y="660" width="130" height="70" as="geometry" />
        </mxCell>
        <mxCell id="qpcqUfOHio-ymFACplYv-53" value="Нет" style="edgeStyle=orthogonalEdgeStyle;rounded=0;orthogonalLoop=1;jettySize=auto;html=1;exitX=0;exitY=0.5;exitDx=0;exitDy=0;" parent="1" source="qpcqUfOHio-ymFACplYv-49" edge="1">
          <mxGeometry x="-0.7966" relative="1" as="geometry">
            <mxPoint x="450" y="960" as="targetPoint" />
            <Array as="points">
              <mxPoint x="550" y="815" />
              <mxPoint x="550" y="960" />
            </Array>
            <mxPoint as="offset" />
          </mxGeometry>
        </mxCell>
        <mxCell id="qpcqUfOHio-ymFACplYv-49" value="Клавиша «N»" style="rhombus;whiteSpace=wrap;html=1;strokeWidth=2;" parent="1" vertex="1">
          <mxGeometry x="600" y="780" width="130" height="70" as="geometry" />
        </mxCell>
        <mxCell id="qpcqUfOHio-ymFACplYv-51" value="Конец" style="strokeWidth=2;html=1;shape=mxgraph.flowchart.terminator;whiteSpace=wrap;" parent="1" vertex="1">
          <mxGeometry x="627.5" y="900" width="75" height="40" as="geometry" />
        </mxCell>
        <mxCell id="qpcqUfOHio-ymFACplYv-52" value="Да" style="edgeStyle=orthogonalEdgeStyle;rounded=0;orthogonalLoop=1;jettySize=auto;html=1;exitX=0.5;exitY=1;exitDx=0;exitDy=0;entryX=0.5;entryY=0;entryDx=0;entryDy=0;entryPerimeter=0;" parent="1" source="qpcqUfOHio-ymFACplYv-49" target="qpcqUfOHio-ymFACplYv-51" edge="1">
          <mxGeometry relative="1" as="geometry" />
        </mxCell>
        <mxCell id="cvNvz7D9P1-mlvtpvNVP-18" style="edgeStyle=orthogonalEdgeStyle;rounded=0;orthogonalLoop=1;jettySize=auto;html=1;exitX=0.5;exitY=1;exitDx=0;exitDy=0;exitPerimeter=0;entryX=0.5;entryY=0;entryDx=0;entryDy=0;" parent="1" source="cvNvz7D9P1-mlvtpvNVP-1" target="qpcqUfOHio-ymFACplYv-46" edge="1">
          <mxGeometry relative="1" as="geometry" />
        </mxCell>
        <mxCell id="cvNvz7D9P1-mlvtpvNVP-1" value="Код клавиши" style="html=1;strokeWidth=2;shape=manualInput;whiteSpace=wrap;rounded=1;size=26;arcSize=11;points=[[0,0.5,0,0,0],[0,0.75,0,0,0],[0,1,0,0,0],[0.25,1,0,0,0],[0.5,0.21,0,0,0],[0.5,1,0,0,0],[0.75,1,0,0,0],[1,0,0,0,0],[1,0.25,0,0,0],[1,0.5,0,0,0],[1,0.75,0,0,0],[1,1,0,0,0]];labelPosition=center;verticalLabelPosition=middle;align=center;verticalAlign=bottom;" parent="1" vertex="1">
          <mxGeometry x="615" y="580" width="100" height="50" as="geometry" />
        </mxCell>
        <mxCell id="cvNvz7D9P1-mlvtpvNVP-4" style="edgeStyle=orthogonalEdgeStyle;rounded=0;orthogonalLoop=1;jettySize=auto;html=1;exitX=0.5;exitY=1;exitDx=0;exitDy=0;exitPerimeter=0;entryX=0.5;entryY=0;entryDx=0;entryDy=0;" parent="1" source="cvNvz7D9P1-mlvtpvNVP-2" target="cvNvz7D9P1-mlvtpvNVP-3" edge="1">
          <mxGeometry relative="1" as="geometry" />
        </mxCell>
        <mxCell id="cvNvz7D9P1-mlvtpvNVP-2" value="&lt;b&gt;ППР_2&lt;/b&gt;&lt;br&gt;Начало" style="strokeWidth=2;html=1;shape=mxgraph.flowchart.start_1;whiteSpace=wrap;" parent="1" vertex="1">
          <mxGeometry x="1340" y="220" width="90" height="50" as="geometry" />
        </mxCell>
        <mxCell id="cvNvz7D9P1-mlvtpvNVP-6" style="edgeStyle=orthogonalEdgeStyle;rounded=0;orthogonalLoop=1;jettySize=auto;html=1;exitX=0.5;exitY=1;exitDx=0;exitDy=0;entryX=0.5;entryY=0;entryDx=0;entryDy=0;" parent="1" source="cvNvz7D9P1-mlvtpvNVP-3" target="y_DUA6QKFecYIxgC0j7_-6" edge="1">
          <mxGeometry relative="1" as="geometry">
            <mxPoint x="1385" y="380" as="targetPoint" />
          </mxGeometry>
        </mxCell>
        <mxCell id="cvNvz7D9P1-mlvtpvNVP-3" value="Входной массив (A&lt;sub&gt;&lt;font style=&quot;font-size: 8px;&quot;&gt;S&lt;/font&gt;&lt;/sub&gt;)" style="shape=parallelogram;perimeter=parallelogramPerimeter;whiteSpace=wrap;html=1;fixedSize=1;strokeWidth=2;" parent="1" vertex="1">
          <mxGeometry x="1303.75" y="300" width="162.5" height="40" as="geometry" />
        </mxCell>
        <mxCell id="y_DUA6QKFecYIxgC0j7_-26" value="Нет" style="edgeStyle=orthogonalEdgeStyle;rounded=0;orthogonalLoop=1;jettySize=auto;html=1;exitX=0.5;exitY=1;exitDx=0;exitDy=0;entryX=0.5;entryY=0;entryDx=0;entryDy=0;" parent="1" source="cvNvz7D9P1-mlvtpvNVP-7" target="y_DUA6QKFecYIxgC0j7_-24" edge="1">
          <mxGeometry relative="1" as="geometry" />
        </mxCell>
        <mxCell id="cvNvz7D9P1-mlvtpvNVP-7" value="count = 0" style="rhombus;whiteSpace=wrap;html=1;strokeWidth=2;" parent="1" vertex="1">
          <mxGeometry x="1630" y="310" width="140" height="70" as="geometry" />
        </mxCell>
        <mxCell id="cvNvz7D9P1-mlvtpvNVP-9" value="A&lt;sub style=&quot;font-size: 8px;&quot;&gt;F&lt;/sub&gt;" style="strokeWidth=2;html=1;shape=mxgraph.flowchart.display;whiteSpace=wrap;" parent="1" vertex="1">
          <mxGeometry x="1655" y="729" width="90" height="50" as="geometry" />
        </mxCell>
        <mxCell id="y_DUA6QKFecYIxgC0j7_-34" style="edgeStyle=orthogonalEdgeStyle;rounded=0;orthogonalLoop=1;jettySize=auto;html=1;exitX=0.5;exitY=1;exitDx=0;exitDy=0;exitPerimeter=0;" parent="1" source="cvNvz7D9P1-mlvtpvNVP-11" edge="1">
          <mxGeometry relative="1" as="geometry">
            <mxPoint x="1701" y="800.08" as="targetPoint" />
            <Array as="points">
              <mxPoint x="1855" y="800.08" />
            </Array>
          </mxGeometry>
        </mxCell>
        <mxCell id="cvNvz7D9P1-mlvtpvNVP-11" value="Оповещение" style="strokeWidth=2;html=1;shape=mxgraph.flowchart.display;whiteSpace=wrap;" parent="1" vertex="1">
          <mxGeometry x="1810" y="420" width="90" height="50" as="geometry" />
        </mxCell>
        <mxCell id="cvNvz7D9P1-mlvtpvNVP-13" value="" style="strokeWidth=2;html=1;shape=mxgraph.flowchart.annotation_2;align=left;labelPosition=right;pointerEvents=1;dashed=1;" parent="1" vertex="1">
          <mxGeometry x="1900" y="420" width="90" height="50" as="geometry" />
        </mxCell>
        <mxCell id="cvNvz7D9P1-mlvtpvNVP-14" value="Отсутствует&lt;br&gt;требуемая строка" style="text;html=1;strokeColor=none;fillColor=none;align=left;verticalAlign=middle;whiteSpace=wrap;rounded=0;" parent="1" vertex="1">
          <mxGeometry x="1950" y="420" width="80" height="50" as="geometry" />
        </mxCell>
        <mxCell id="cvNvz7D9P1-mlvtpvNVP-15" value="&lt;b&gt;ППР_2&lt;/b&gt;&lt;br&gt;Конец" style="strokeWidth=2;html=1;shape=mxgraph.flowchart.terminator;whiteSpace=wrap;" parent="1" vertex="1">
          <mxGeometry x="1655" y="830" width="90" height="50" as="geometry" />
        </mxCell>
        <mxCell id="cvNvz7D9P1-mlvtpvNVP-16" style="edgeStyle=orthogonalEdgeStyle;rounded=0;orthogonalLoop=1;jettySize=auto;html=1;exitX=0.5;exitY=1;exitDx=0;exitDy=0;exitPerimeter=0;entryX=0.5;entryY=0;entryDx=0;entryDy=0;entryPerimeter=0;" parent="1" source="cvNvz7D9P1-mlvtpvNVP-9" target="cvNvz7D9P1-mlvtpvNVP-15" edge="1">
          <mxGeometry relative="1" as="geometry" />
        </mxCell>
        <mxCell id="cvNvz7D9P1-mlvtpvNVP-19" style="edgeStyle=orthogonalEdgeStyle;rounded=0;orthogonalLoop=1;jettySize=auto;html=1;exitX=0.5;exitY=1;exitDx=0;exitDy=0;exitPerimeter=0;entryX=0.5;entryY=0.21;entryDx=0;entryDy=0;entryPerimeter=0;" parent="1" source="qpcqUfOHio-ymFACplYv-37" target="cvNvz7D9P1-mlvtpvNVP-1" edge="1">
          <mxGeometry relative="1" as="geometry">
            <Array as="points">
              <mxPoint x="450" y="1070" />
              <mxPoint x="770" y="1070" />
              <mxPoint x="770" y="550" />
              <mxPoint x="665" y="550" />
            </Array>
          </mxGeometry>
        </mxCell>
        <mxCell id="y_DUA6QKFecYIxgC0j7_-9" style="edgeStyle=orthogonalEdgeStyle;rounded=0;orthogonalLoop=1;jettySize=auto;html=1;exitX=0.5;exitY=1;exitDx=0;exitDy=0;entryX=0.5;entryY=0;entryDx=0;entryDy=0;" parent="1" source="y_DUA6QKFecYIxgC0j7_-6" target="y_DUA6QKFecYIxgC0j7_-8" edge="1">
          <mxGeometry relative="1" as="geometry" />
        </mxCell>
        <mxCell id="y_DUA6QKFecYIxgC0j7_-6" value="N = размер A&lt;sub&gt;&lt;font style=&quot;font-size: 8px;&quot;&gt;S&lt;/font&gt;&lt;/sub&gt;" style="rounded=1;whiteSpace=wrap;html=1;absoluteArcSize=1;arcSize=0;strokeWidth=2;" parent="1" vertex="1">
          <mxGeometry x="1330" y="370" width="110" height="45" as="geometry" />
        </mxCell>
        <mxCell id="y_DUA6QKFecYIxgC0j7_-13" style="edgeStyle=orthogonalEdgeStyle;rounded=0;orthogonalLoop=1;jettySize=auto;html=1;exitX=0.5;exitY=1;exitDx=0;exitDy=0;entryX=0.5;entryY=0;entryDx=0;entryDy=0;" parent="1" source="y_DUA6QKFecYIxgC0j7_-8" target="y_DUA6QKFecYIxgC0j7_-12" edge="1">
          <mxGeometry relative="1" as="geometry" />
        </mxCell>
        <mxCell id="y_DUA6QKFecYIxgC0j7_-8" value="Размер временного массива (A&lt;font style=&quot;font-size: 8px;&quot;&gt;&lt;sub&gt;T&lt;/sub&gt;&lt;/font&gt;) = N" style="rounded=1;whiteSpace=wrap;html=1;absoluteArcSize=1;arcSize=0;strokeWidth=2;" parent="1" vertex="1">
          <mxGeometry x="1320" y="450" width="130" height="43.75" as="geometry" />
        </mxCell>
        <mxCell id="y_DUA6QKFecYIxgC0j7_-17" style="edgeStyle=orthogonalEdgeStyle;rounded=0;orthogonalLoop=1;jettySize=auto;html=1;exitX=0.5;exitY=1;exitDx=0;exitDy=0;entryX=0.5;entryY=0;entryDx=0;entryDy=0;" parent="1" source="y_DUA6QKFecYIxgC0j7_-10" target="y_DUA6QKFecYIxgC0j7_-16" edge="1">
          <mxGeometry relative="1" as="geometry" />
        </mxCell>
        <mxCell id="y_DUA6QKFecYIxgC0j7_-25" value="КЦ" style="edgeStyle=orthogonalEdgeStyle;rounded=0;orthogonalLoop=1;jettySize=auto;html=1;exitX=1;exitY=0.5;exitDx=0;exitDy=0;entryX=0.5;entryY=0;entryDx=0;entryDy=0;" parent="1" source="y_DUA6QKFecYIxgC0j7_-10" target="cvNvz7D9P1-mlvtpvNVP-7" edge="1">
          <mxGeometry x="-0.8899" relative="1" as="geometry">
            <Array as="points">
              <mxPoint x="1550" y="645" />
              <mxPoint x="1550" y="280" />
              <mxPoint x="1700" y="280" />
            </Array>
            <mxPoint as="offset" />
          </mxGeometry>
        </mxCell>
        <mxCell id="y_DUA6QKFecYIxgC0j7_-10" value="Индекс (i = 0);&amp;nbsp; i до N;&amp;nbsp; шаг = 1" style="verticalLabelPosition=middle;verticalAlign=middle;html=1;shape=hexagon;perimeter=hexagonPerimeter2;arcSize=6;size=0.25000000000000094;labelPosition=center;align=center;strokeWidth=2;" parent="1" vertex="1">
          <mxGeometry x="1280" y="610" width="210" height="70" as="geometry" />
        </mxCell>
        <mxCell id="y_DUA6QKFecYIxgC0j7_-14" style="edgeStyle=orthogonalEdgeStyle;rounded=0;orthogonalLoop=1;jettySize=auto;html=1;exitX=0.5;exitY=1;exitDx=0;exitDy=0;entryX=0.5;entryY=0;entryDx=0;entryDy=0;" parent="1" source="y_DUA6QKFecYIxgC0j7_-12" target="y_DUA6QKFecYIxgC0j7_-10" edge="1">
          <mxGeometry relative="1" as="geometry" />
        </mxCell>
        <mxCell id="y_DUA6QKFecYIxgC0j7_-12" value="Счётчик найденных элементов (count) = 0" style="rounded=1;whiteSpace=wrap;html=1;absoluteArcSize=1;arcSize=0;strokeWidth=2;" parent="1" vertex="1">
          <mxGeometry x="1320" y="530" width="130" height="50" as="geometry" />
        </mxCell>
        <mxCell id="y_DUA6QKFecYIxgC0j7_-19" value="Да" style="edgeStyle=orthogonalEdgeStyle;rounded=0;orthogonalLoop=1;jettySize=auto;html=1;exitX=0.5;exitY=1;exitDx=0;exitDy=0;entryX=0.5;entryY=0;entryDx=0;entryDy=0;" parent="1" source="y_DUA6QKFecYIxgC0j7_-16" target="y_DUA6QKFecYIxgC0j7_-18" edge="1">
          <mxGeometry relative="1" as="geometry" />
        </mxCell>
        <mxCell id="y_DUA6QKFecYIxgC0j7_-23" value="Нет" style="edgeStyle=orthogonalEdgeStyle;rounded=0;orthogonalLoop=1;jettySize=auto;html=1;exitX=0;exitY=0.5;exitDx=0;exitDy=0;" parent="1" source="y_DUA6QKFecYIxgC0j7_-16" edge="1">
          <mxGeometry relative="1" as="geometry">
            <mxPoint x="1230" y="749.9411764705883" as="targetPoint" />
          </mxGeometry>
        </mxCell>
        <mxCell id="y_DUA6QKFecYIxgC0j7_-16" value="Длина A&lt;sub style=&quot;font-size: 8px;&quot;&gt;S&lt;/sub&gt;[i]&amp;nbsp;≤ 3" style="rhombus;whiteSpace=wrap;html=1;strokeWidth=2;" parent="1" vertex="1">
          <mxGeometry x="1312.5" y="715" width="145" height="70" as="geometry" />
        </mxCell>
        <mxCell id="y_DUA6QKFecYIxgC0j7_-21" style="edgeStyle=orthogonalEdgeStyle;rounded=0;orthogonalLoop=1;jettySize=auto;html=1;exitX=0.5;exitY=1;exitDx=0;exitDy=0;entryX=0.5;entryY=0;entryDx=0;entryDy=0;" parent="1" source="y_DUA6QKFecYIxgC0j7_-18" target="y_DUA6QKFecYIxgC0j7_-20" edge="1">
          <mxGeometry relative="1" as="geometry" />
        </mxCell>
        <mxCell id="y_DUA6QKFecYIxgC0j7_-18" value="A&lt;font style=&quot;&quot;&gt;&lt;sub style=&quot;font-size: 8px;&quot;&gt;T&lt;/sub&gt;&lt;font style=&quot;font-size: 12px;&quot;&gt;[count] =&amp;nbsp;&lt;/font&gt;&lt;/font&gt;A&lt;sub style=&quot;font-size: 8px;&quot;&gt;S&lt;/sub&gt;[i]" style="rounded=1;whiteSpace=wrap;html=1;absoluteArcSize=1;arcSize=0;strokeWidth=2;" parent="1" vertex="1">
          <mxGeometry x="1330" y="830" width="110" height="40" as="geometry" />
        </mxCell>
        <mxCell id="y_DUA6QKFecYIxgC0j7_-22" style="edgeStyle=orthogonalEdgeStyle;rounded=0;orthogonalLoop=1;jettySize=auto;html=1;exitX=0.5;exitY=1;exitDx=0;exitDy=0;entryX=0;entryY=0.5;entryDx=0;entryDy=0;" parent="1" source="y_DUA6QKFecYIxgC0j7_-20" target="y_DUA6QKFecYIxgC0j7_-10" edge="1">
          <mxGeometry relative="1" as="geometry">
            <Array as="points">
              <mxPoint x="1385" y="960" />
              <mxPoint x="1230" y="960" />
              <mxPoint x="1230" y="645" />
            </Array>
          </mxGeometry>
        </mxCell>
        <mxCell id="y_DUA6QKFecYIxgC0j7_-20" value="count = count +1" style="rounded=1;whiteSpace=wrap;html=1;absoluteArcSize=1;arcSize=0;strokeWidth=2;" parent="1" vertex="1">
          <mxGeometry x="1335" y="900" width="100" height="40" as="geometry" />
        </mxCell>
        <mxCell id="y_DUA6QKFecYIxgC0j7_-29" style="edgeStyle=orthogonalEdgeStyle;rounded=0;orthogonalLoop=1;jettySize=auto;html=1;exitX=0.5;exitY=1;exitDx=0;exitDy=0;entryX=0.5;entryY=0;entryDx=0;entryDy=0;" parent="1" source="y_DUA6QKFecYIxgC0j7_-24" target="y_DUA6QKFecYIxgC0j7_-28" edge="1">
          <mxGeometry relative="1" as="geometry" />
        </mxCell>
        <mxCell id="y_DUA6QKFecYIxgC0j7_-24" value="Размер конечного массива (A&lt;font style=&quot;font-size: 8px;&quot;&gt;&lt;sub&gt;F&lt;/sub&gt;&lt;/font&gt;) = count" style="rounded=1;whiteSpace=wrap;html=1;absoluteArcSize=1;arcSize=0;strokeWidth=2;" parent="1" vertex="1">
          <mxGeometry x="1635" y="430" width="130" height="40" as="geometry" />
        </mxCell>
        <mxCell id="y_DUA6QKFecYIxgC0j7_-27" value="Да" style="edgeStyle=orthogonalEdgeStyle;rounded=0;orthogonalLoop=1;jettySize=auto;html=1;exitX=1;exitY=0.5;exitDx=0;exitDy=0;entryX=0.5;entryY=0;entryDx=0;entryDy=0;entryPerimeter=0;" parent="1" source="cvNvz7D9P1-mlvtpvNVP-7" target="cvNvz7D9P1-mlvtpvNVP-11" edge="1">
          <mxGeometry x="-0.4817" relative="1" as="geometry">
            <mxPoint as="offset" />
          </mxGeometry>
        </mxCell>
        <mxCell id="y_DUA6QKFecYIxgC0j7_-31" style="edgeStyle=orthogonalEdgeStyle;rounded=0;orthogonalLoop=1;jettySize=auto;html=1;exitX=0.5;exitY=1;exitDx=0;exitDy=0;entryX=0.5;entryY=0;entryDx=0;entryDy=0;" parent="1" source="y_DUA6QKFecYIxgC0j7_-28" target="y_DUA6QKFecYIxgC0j7_-30" edge="1">
          <mxGeometry relative="1" as="geometry" />
        </mxCell>
        <mxCell id="y_DUA6QKFecYIxgC0j7_-28" value="i = 0;&amp;nbsp; i до count;&amp;nbsp; шаг = 1" style="verticalLabelPosition=middle;verticalAlign=middle;html=1;shape=hexagon;perimeter=hexagonPerimeter2;arcSize=6;size=0.25000000000000094;labelPosition=center;align=center;strokeWidth=2;" parent="1" vertex="1">
          <mxGeometry x="1615" y="510" width="170" height="70" as="geometry" />
        </mxCell>
        <mxCell id="y_DUA6QKFecYIxgC0j7_-32" style="edgeStyle=orthogonalEdgeStyle;rounded=0;orthogonalLoop=1;jettySize=auto;html=1;exitX=0.5;exitY=1;exitDx=0;exitDy=0;entryX=0;entryY=0.5;entryDx=0;entryDy=0;" parent="1" source="y_DUA6QKFecYIxgC0j7_-30" target="y_DUA6QKFecYIxgC0j7_-28" edge="1">
          <mxGeometry relative="1" as="geometry">
            <Array as="points">
              <mxPoint x="1700" y="680" />
              <mxPoint x="1580" y="680" />
              <mxPoint x="1580" y="545" />
            </Array>
          </mxGeometry>
        </mxCell>
        <mxCell id="y_DUA6QKFecYIxgC0j7_-30" value="A&lt;font style=&quot;&quot;&gt;&lt;sub style=&quot;font-size: 8px;&quot;&gt;F&lt;/sub&gt;&lt;font style=&quot;font-size: 12px;&quot;&gt;[i] =&amp;nbsp;&lt;/font&gt;&lt;/font&gt;A&lt;sub style=&quot;font-size: 8px;&quot;&gt;T&lt;/sub&gt;[i]" style="rounded=1;whiteSpace=wrap;html=1;absoluteArcSize=1;arcSize=0;strokeWidth=2;" parent="1" vertex="1">
          <mxGeometry x="1650" y="620" width="100" height="40" as="geometry" />
        </mxCell>
        <mxCell id="y_DUA6QKFecYIxgC0j7_-33" value="КЦ" style="edgeStyle=orthogonalEdgeStyle;rounded=0;orthogonalLoop=1;jettySize=auto;html=1;exitX=1;exitY=0.5;exitDx=0;exitDy=0;entryX=0.5;entryY=0;entryDx=0;entryDy=0;entryPerimeter=0;" parent="1" source="y_DUA6QKFecYIxgC0j7_-28" target="cvNvz7D9P1-mlvtpvNVP-9" edge="1">
          <mxGeometry x="-0.8919" relative="1" as="geometry">
            <Array as="points">
              <mxPoint x="1830" y="545" />
              <mxPoint x="1830" y="700" />
              <mxPoint x="1700" y="700" />
              <mxPoint x="1700" y="730" />
            </Array>
            <mxPoint as="offset" />
          </mxGeometry>
        </mxCell>
        <mxCell id="_OoWVuKjzteK8_PaXhf7-4" style="edgeStyle=orthogonalEdgeStyle;rounded=0;orthogonalLoop=1;jettySize=auto;html=1;exitX=0.5;exitY=1;exitDx=0;exitDy=0;exitPerimeter=0;entryX=0.5;entryY=0;entryDx=0;entryDy=0;" parent="1" source="qpcqUfOHio-ymFACplYv-3" target="qpcqUfOHio-ymFACplYv-9" edge="1">
          <mxGeometry relative="1" as="geometry">
            <mxPoint x="120" y="449.9200000000001" as="targetPoint" />
            <Array as="points" />
          </mxGeometry>
        </mxCell>
        <mxCell id="z7aqqLMmPEnwP_UpqEK7-4" value="Входной массив (A&lt;sub&gt;&lt;font style=&quot;font-size: 8px;&quot;&gt;S&lt;/font&gt;&lt;/sub&gt;)" style="shape=parallelogram;perimeter=parallelogramPerimeter;whiteSpace=wrap;html=1;fixedSize=1;strokeWidth=2;" vertex="1" parent="1">
          <mxGeometry x="940" y="310" width="162.5" height="40" as="geometry" />
        </mxCell>
        <mxCell id="z7aqqLMmPEnwP_UpqEK7-11" style="edgeStyle=orthogonalEdgeStyle;rounded=0;orthogonalLoop=1;jettySize=auto;html=1;exitX=0.5;exitY=1;exitDx=0;exitDy=0;exitPerimeter=0;entryX=0.5;entryY=0;entryDx=0;entryDy=0;" edge="1" parent="1" source="z7aqqLMmPEnwP_UpqEK7-8" target="z7aqqLMmPEnwP_UpqEK7-10">
          <mxGeometry relative="1" as="geometry" />
        </mxCell>
        <mxCell id="z7aqqLMmPEnwP_UpqEK7-8" value="A&lt;sub&gt;&lt;font style=&quot;font-size: 8px;&quot;&gt;S&lt;/font&gt;&lt;/sub&gt;" style="strokeWidth=2;html=1;shape=mxgraph.flowchart.display;whiteSpace=wrap;" vertex="1" parent="1">
          <mxGeometry x="976.25" y="380.0000000000001" width="90" height="50" as="geometry" />
        </mxCell>
        <mxCell id="z7aqqLMmPEnwP_UpqEK7-9" style="edgeStyle=orthogonalEdgeStyle;rounded=0;orthogonalLoop=1;jettySize=auto;html=1;exitX=0.5;exitY=1;exitDx=0;exitDy=0;entryX=0.5;entryY=0;entryDx=0;entryDy=0;entryPerimeter=0;" edge="1" parent="1" source="z7aqqLMmPEnwP_UpqEK7-4" target="z7aqqLMmPEnwP_UpqEK7-8">
          <mxGeometry relative="1" as="geometry" />
        </mxCell>
        <mxCell id="z7aqqLMmPEnwP_UpqEK7-10" value="&lt;p style=&quot;line-height: 120%;&quot;&gt;&lt;b&gt;ППР_2&lt;/b&gt;&lt;/p&gt;&lt;p style=&quot;line-height: 120%;&quot;&gt;Обработка&lt;br&gt;A&lt;sub&gt;&lt;font style=&quot;font-size: 8px;&quot;&gt;S&lt;/font&gt;&lt;/sub&gt;&lt;br&gt;&lt;/p&gt;" style="shape=process;whiteSpace=wrap;backgroundOutline=1;strokeWidth=2;html=1;" vertex="1" parent="1">
          <mxGeometry x="961.25" y="470" width="120" height="70" as="geometry" />
        </mxCell>
        <mxCell id="z7aqqLMmPEnwP_UpqEK7-13" style="edgeStyle=orthogonalEdgeStyle;rounded=0;orthogonalLoop=1;jettySize=auto;html=1;exitX=0.5;exitY=1;exitDx=0;exitDy=0;exitPerimeter=0;entryX=0.5;entryY=0;entryDx=0;entryDy=0;" edge="1" parent="1" source="z7aqqLMmPEnwP_UpqEK7-12" target="z7aqqLMmPEnwP_UpqEK7-4">
          <mxGeometry relative="1" as="geometry" />
        </mxCell>
        <mxCell id="z7aqqLMmPEnwP_UpqEK7-12" value="&lt;b&gt;ППР_1&lt;/b&gt;&lt;br&gt;Начало" style="strokeWidth=2;html=1;shape=mxgraph.flowchart.start_1;whiteSpace=wrap;" vertex="1" parent="1">
          <mxGeometry x="976.25" y="220" width="90" height="50" as="geometry" />
        </mxCell>
        <mxCell id="z7aqqLMmPEnwP_UpqEK7-14" value="&lt;b&gt;ППР_1&lt;/b&gt;&lt;br&gt;Конец" style="strokeWidth=2;html=1;shape=mxgraph.flowchart.terminator;whiteSpace=wrap;" vertex="1" parent="1">
          <mxGeometry x="976.25" y="579.92" width="90" height="50" as="geometry" />
        </mxCell>
        <mxCell id="z7aqqLMmPEnwP_UpqEK7-15" style="edgeStyle=orthogonalEdgeStyle;rounded=0;orthogonalLoop=1;jettySize=auto;html=1;exitX=0.5;exitY=1;exitDx=0;exitDy=0;entryX=0.5;entryY=0;entryDx=0;entryDy=0;entryPerimeter=0;" edge="1" parent="1" source="z7aqqLMmPEnwP_UpqEK7-10" target="z7aqqLMmPEnwP_UpqEK7-14">
          <mxGeometry relative="1" as="geometry" />
        </mxCell>
      </root>
    </mxGraphModel>
  </diagram>
</mxfile>
